# xmcd
#
# Track frame offsets:
# 150
# 13837
# 26954
# 39351
# 49596
# 59946
# 74353
# 87020
# 98510
# 111485
#
# Disc length: 1615 seconds
#
#
# Revision: 0
# Processed by: cddbd v1.5.1PL2 Copyright (c) Steve Scherf et al.
# Submitted via: FreeRIP 2.942 
#
DISCID=87064d0a
DTITLE=Lynn, Loretta - When The Tingle Becomes A Chill
DYEAR=1976
DGENRE=Country
TTITLE0=When The Tingle Becomes A Chill
TTITLE1=You Love You
TTITLE2=Leaning On Your Love
TTITLE3=All I want From You (Is Away)
TTITLE4=Red, White and Blue
TTITLE5=Rhinestone Cowboy
TTITLE6=Turn Me Anyway But Loose
TTITLE7=Daydreams About Night Things
TTITLE8=She'll Never Know
TTITLE9=(Just Get Up And) Close The Door
EXTD=LP Rip\nMCA Records - 1976
EXTT0=
EXTT1=
EXTT2=
EXTT3=
EXTT4=
EXTT5=
EXTT6=
EXTT7=
EXTT8=
EXTT9=
PLAYORDER=
